<svg id="visual" viewBox="0 0 540 960" width="540" height="960" xmlns="http://www.w3.org/2000/svg" xmlns:xlink="http://www.w3.org/1999/xlink" version="1.1"><rect x="0" y="0" width="540" height="960" fill="#001220"></rect><defs><linearGradient id="grad1_0" x1="0%" y1="0%" x2="100%" y2="100%"><stop offset="30%" stop-color="#001220" stop-opacity="1"></stop><stop offset="70%" stop-color="#001220" stop-opacity="1"></stop></linearGradient></defs><defs><linearGradient id="grad2_0" x1="0%" y1="0%" x2="100%" y2="100%"><stop offset="30%" stop-color="#001220" stop-opacity="1"></stop><stop offset="70%" stop-color="#001220" stop-opacity="1"></stop></linearGradient></defs><g transform="translate(540, 0)"><path d="M0 432C-47.2 423.6 -94.4 415.2 -126.4 389C-158.4 362.8 -175.3 318.7 -216.9 298.5C-258.5 278.3 -324.8 282 -349.5 253.9C-374.2 225.8 -357.4 166 -364.3 118.4C-371.1 70.7 -401.5 35.4 -432 0L0 0Z" fill="#73ff00"></path></g><g transform="translate(0, 960)"><path d="M0 -432C34.7 -388.4 69.3 -344.8 106.9 -329.1C144.5 -313.3 185 -325.3 232.8 -320.4C280.5 -315.4 335.5 -293.6 349.5 -253.9C363.5 -214.3 336.4 -156.8 343.3 -111.6C350.2 -66.3 391.1 -33.1 432 0L0 0Z" fill="#73ff00"></path></g></svg>