<svg id="visual" viewBox="0 0 540 960" width="540" height="960" xmlns="http://www.w3.org/2000/svg" xmlns:xlink="http://www.w3.org/1999/xlink" version="1.1"><rect x="0" y="0" width="540" height="960" fill="#001220"></rect><defs><linearGradient id="grad1_0" x1="0%" y1="0%" x2="100%" y2="100%"><stop offset="30%" stop-color="#001220" stop-opacity="1"></stop><stop offset="70%" stop-color="#001220" stop-opacity="1"></stop></linearGradient></defs><defs><linearGradient id="grad2_0" x1="0%" y1="0%" x2="100%" y2="100%"><stop offset="30%" stop-color="#001220" stop-opacity="1"></stop><stop offset="70%" stop-color="#001220" stop-opacity="1"></stop></linearGradient></defs><g transform="translate(540, 0)"><path d="M0 513C-58.8 511.4 -117.5 509.7 -154.8 476.5C-192.1 443.2 -208 378.4 -254.5 350.3C-301.1 322.2 -378.3 330.8 -415 301.5C-451.7 272.3 -447.9 205.2 -457.5 148.6C-467 92.1 -490 46 -513 0L0 0Z" fill="#73ff00"></path></g><g transform="translate(0, 960)"><path d="M0 -513C50.2 -483.5 100.3 -454 137.5 -423.2C174.7 -392.5 198.9 -360.5 251.6 -346.3C304.2 -332 385.3 -335.4 415 -301.5C444.7 -267.7 423.1 -196.5 430.8 -140C438.6 -83.5 475.8 -41.8 513 0L0 0Z" fill="#73ff00"></path></g></svg>